<svg id="Group_303" data-name="Group 303" xmlns="http://www.w3.org/2000/svg" xmlns:xlink="http://www.w3.org/1999/xlink" width="26.329" height="17.422" viewBox="0 0 26.329 17.422">
  <defs>
    <clipPath id="clip-path">
      <rect id="Rectangle_328" data-name="Rectangle 328" width="26.329" height="17.422" fill="#0094d3"/>
    </clipPath>
  </defs>
  <g id="Group_302" data-name="Group 302" clip-path="url(#clip-path)">
    <path id="Path_947" data-name="Path 947" d="M24.442,0H1.879A1.842,1.842,0,0,0,0,1.845Q0,8.712,0,15.577a1.845,1.845,0,0,0,1.861,1.844H24.484a1.828,1.828,0,0,0,1.845-1.842V1.891A1.831,1.831,0,0,0,24.442,0M7.921,8.373,5.23,12.141l-.437.612-.026-.008.117-.544q.307-1.406.615-2.813c.035-.16.034-.161-.126-.161H3.613c-.034,0-.083.018-.1-.024s.023-.061.041-.088q.734-1.063,1.469-2.126.783-1.136,1.563-2.272c.011-.016.024-.03.037-.047.035.027.013.053.008.076L5.948,7.511c-.055.221-.107.442-.164.662-.02.078,0,.1.08.1.641,0,1.283,0,1.924,0h.081c.03,0,.067-.009.084.023s-.015.056-.031.079m8.684,2.2a.641.641,0,0,1,.16-.669,1.716,1.716,0,0,0,0-2.387.661.661,0,1,1,.971-.9,3.025,3.025,0,0,1,0,4.182.659.659,0,0,1-1.13-.23m2.2,2.249a.667.667,0,0,1-.174-1.1,4.013,4.013,0,0,0,.936-1.444A4.234,4.234,0,0,0,18.626,5.7a.679.679,0,0,1-.152-.77.653.653,0,0,1,.652-.387.665.665,0,0,1,.441.221,5.562,5.562,0,0,1,1.614,3.672c0,.09,0,.183,0,.274a5.572,5.572,0,0,1-1.565,3.894.664.664,0,0,1-.814.215m4.984-3.933a8.2,8.2,0,0,1-2.395,5.628.617.617,0,0,1-.66.177.642.642,0,0,1-.459-.511.649.649,0,0,1,.212-.614,6.717,6.717,0,0,0,1.283-1.805,6.951,6.951,0,0,0-.806-7.372c-.152-.192-.321-.371-.49-.551a.656.656,0,1,1,.933-.92,8.172,8.172,0,0,1,2.332,4.886c.021.182.038.364.047.547s0,.356,0,.534" transform="translate(0)" fill="#0094d3"/>
  </g>
</svg>
