<svg id="Group_305" data-name="Group 305" xmlns="http://www.w3.org/2000/svg" xmlns:xlink="http://www.w3.org/1999/xlink" width="20.162" height="17.422" viewBox="0 0 20.162 17.422">
  <defs>
    <clipPath id="clip-path">
      <rect id="Rectangle_329" data-name="Rectangle 329" width="20.162" height="17.422" fill="#0094d3"/>
    </clipPath>
  </defs>
  <g id="Group_304" data-name="Group 304" clip-path="url(#clip-path)">
    <path id="Path_948" data-name="Path 948" d="M6.035,14.164l.014-.014a.962.962,0,0,1,1.27-.079,6.608,6.608,0,0,0,4.709,1.387,6.515,6.515,0,0,0,3.992-1.751A6.771,6.771,0,1,0,4.679,8.7H7.14a.134.134,0,0,1,.1.228l-3.573,3.6L.035,8.914a.119.119,0,0,1,.084-.2H2.724A8.646,8.646,0,0,1,5.616,2.246a8.467,8.467,0,0,1,5.4-2.234,8.708,8.708,0,1,1-4.9,15.583.961.961,0,0,1-.08-1.431" transform="translate(0 0)" fill="#0094d3"/>
    <path id="Path_949" data-name="Path 949" d="M230.635,106.7h1.1a.175.175,0,0,1,.175.175v.067c0,1.209,0,2.417,0,3.626a.351.351,0,0,0,.2.356c1,.582,1.988,1.175,2.981,1.765h0a.248.248,0,0,1,.086.339l-.443.745a.247.247,0,0,1-.338.087l-.619-.365q-1.577-.936-3.155-1.871a.267.267,0,0,1-.162-.261c.006-1.5,0-2.991,0-4.487v0a.175.175,0,0,1,.175-.175" transform="translate(-219.983 -101.853)" fill="#0094d3"/>
  </g>
</svg>
