<svg id="Group_309" data-name="Group 309" xmlns="http://www.w3.org/2000/svg" xmlns:xlink="http://www.w3.org/1999/xlink" width="18.77" height="23.834" viewBox="0 0 18.77 23.834">
  <defs>
    <clipPath id="clip-path">
      <rect id="Rectangle_331" data-name="Rectangle 331" width="18.77" height="23.834" fill="#0094d3"/>
    </clipPath>
  </defs>
  <g id="Group_308" data-name="Group 308" clip-path="url(#clip-path)">
    <path id="Path_955" data-name="Path 955" d="M15.415,22.739l-.056-.009a3.927,3.927,0,0,1-3.321-4.3,3.918,3.918,0,0,1,3.434-3.48c.138-.015.2-.056.185-.2-.015-.114.041-.149.15-.146.224.006.448,0,.671,0A.5.5,0,0,0,17,14.087q0-1.457,0-2.914a.5.5,0,0,0-.448-.524,3.391,3.391,0,0,0-.542-.016c-.405-.008-.347.058-.357-.357,0-.13.05-.164.17-.161.209.007.419.007.629,0A.52.52,0,0,0,17,9.552q0-1.422,0-2.843a.52.52,0,0,0-.556-.566c-.167,0-.333,0-.5,0-.313,0-.281.041-.289-.294,0-.127.046-.165.168-.164a4.644,4.644,0,0,0,.727-.018A.5.5,0,0,0,17,5.158q0-1.464,0-2.928a.5.5,0,0,0-.515-.516c-.21,0-.419,0-.629,0s-.194,0-.2-.2a3.56,3.56,0,0,0-.019-.67A1.06,1.06,0,0,0,14.518,0H.97A1.285,1.285,0,0,0,0,1.18q0,.033,0,.066V22.574q0,.033,0,.066a1.285,1.285,0,0,0,1.035,1.194H14.543a1.06,1.06,0,0,0,1.077-.77c.077-.255.054-.293-.2-.325M7.909,11.114H3.567a.575.575,0,0,1-.656-.656q0-2.513,0-5.027a.584.584,0,0,1,.653-.652h8.711a.568.568,0,0,1,.629.626q0,2.542,0,5.084a.559.559,0,0,1-.627.624H7.909" fill="#0094d3"/>
    <path id="Path_956" data-name="Path 956" d="M162.445,221.012c0,.236,0,.236.236.236q2.985,0,5.971,0c.433,0,.37.058.375-.382,0-.2,0-.2-.2-.2h-3.085q-1.478,0-2.957,0c-.382,0-.337-.046-.34.346" transform="translate(-157.8 -214.355)" fill="#0094d3"/>
    <path id="Path_957" data-name="Path 957" d="M162.653,265.139h3.085q1.471,0,2.942,0c.4,0,.345.042.349-.351,0-.23,0-.23-.226-.23q-2.992,0-5.985,0c-.422,0-.367-.061-.37.371,0,.206,0,.209.205.209" transform="translate(-157.801 -256.99)" fill="#0094d3"/>
    <path id="Path_958" data-name="Path 958" d="M169.083,308.716c0-.188,0-.192-.191-.192H162.61a.093.093,0,0,0-.106.1c0,.119,0,.238,0,.357a.1.1,0,0,0,.115.115c.052,0,.1,0,.157,0q2.962,0,5.925,0c.45,0,.378.055.384-.387" transform="translate(-157.856 -299.701)" fill="#0094d3"/>
    <path id="Path_959" data-name="Path 959" d="M454.242,556.53a2.932,2.932,0,1,0,2.932,2.932,2.932,2.932,0,0,0-2.932-2.932m1.481,2.263-.6.6-.695.694c-.112.112-.225.224-.336.337a.213.213,0,0,1-.306,0c-.235-.237-.472-.473-.709-.71l-.157-.156a.209.209,0,0,1-.005-.293c.059-.062.12-.121.18-.182l.078-.077a.209.209,0,0,1,.28-.011c.036.031.067.067.1.1l.377.377.006.005.111-.108.382-.382.387-.388.363-.361a.208.208,0,0,1,.283-.012c.041.035.078.076.116.115l.142.144a.209.209,0,0,1,0,.308" transform="translate(-438.404 -540.615)" fill="#0094d3"/>
  </g>
</svg>
