<svg xmlns="http://www.w3.org/2000/svg" xmlns:xlink="http://www.w3.org/1999/xlink" width="33.421" height="33.421" viewBox="0 0 33.421 33.421">
  <defs>
    <filter id="Path_970" x="0" y="0" width="33.421" height="33.421" filterUnits="userSpaceOnUse">
      <feOffset dy="3" input="SourceAlpha"/>
      <feGaussianBlur stdDeviation="3" result="blur"/>
      <feFlood flood-opacity="0.161"/>
      <feComposite operator="in" in2="blur"/>
      <feComposite in="SourceGraphic"/>
    </filter>
  </defs>
  <g id="Group_326" data-name="Group 326" transform="translate(9 6)">
    <g id="Group_327" data-name="Group 327">
      <g transform="matrix(1, 0, 0, 1, -9, -6)" filter="url(#Path_970)">
        <path id="Path_970-2" data-name="Path 970" d="M15.421,7.711A7.711,7.711,0,1,1,7.711,0a7.711,7.711,0,0,1,7.711,7.711" transform="translate(9 6)" fill="#fff"/>
      </g>
      <path id="Path_971" data-name="Path 971" d="M48.9,70.871c-.287-.04-.575-.071-.859-.122A7.644,7.644,0,0,1,44.374,69a8.617,8.617,0,0,1-.786-.785.277.277,0,0,1-.069-.287,6.14,6.14,0,0,1,3.95-4.168c.037-.013.093-.014.1-.056.011-.065-.054-.09-.1-.121a3.112,3.112,0,0,1-1.2-1.951,3.168,3.168,0,0,1,1.439-3.274,3.071,3.071,0,0,1,3.164-.133A3.011,3.011,0,0,1,52.568,60.6a3.088,3.088,0,0,1-1.2,2.971c-.042.034-.112.061-.107.117.007.072.091.065.144.084a6.078,6.078,0,0,1,3.375,2.85,6.5,6.5,0,0,1,.527,1.29.286.286,0,0,1-.065.3,7.656,7.656,0,0,1-4.678,2.572c-.212.033-.425.058-.637.086Z" transform="translate(-41.704 -55.45)" fill="#c6c3bd"/>
    </g>
  </g>
</svg>
