<svg id="Group_311" data-name="Group 311" xmlns="http://www.w3.org/2000/svg" xmlns:xlink="http://www.w3.org/1999/xlink" width="24.708" height="21.108" viewBox="0 0 24.708 21.108">
  <defs>
    <clipPath id="clip-path">
      <rect id="Rectangle_332" data-name="Rectangle 332" width="24.708" height="21.108" fill="#0094d3"/>
    </clipPath>
  </defs>
  <g id="Group_310" data-name="Group 310" clip-path="url(#clip-path)">
    <path id="Path_960" data-name="Path 960" d="M172.251.325A.326.326,0,0,0,171.926,0H167.5a.326.326,0,0,0-.325.325V8.2l5.078-5.958Z" transform="translate(-149.67)" fill="#0094d3"/>
    <path id="Path_961" data-name="Path 961" d="M167.173,65.5v3.183a.326.326,0,0,0,.325.325h4.429a.326.326,0,0,0,.325-.325V53.5l-5.078,5.958Z" transform="translate(-149.67 -47.898)" fill="#0094d3"/>
    <path id="Path_962" data-name="Path 962" d="M91.573,120.293v4.345a.326.326,0,0,0,.325.325h4.429a.326.326,0,0,0,.325-.325v-8L94.463,116Z" transform="translate(-81.985 -103.855)" fill="#0094d3"/>
    <path id="Path_963" data-name="Path 963" d="M94.406,53.612l2.345.681V49.225a.326.326,0,0,0-.325-.325H92a.326.326,0,0,0-.325.325v7.1L93.2,54.051a1.083,1.083,0,0,1,1.2-.44" transform="translate(-82.075 -43.78)" fill="#0094d3"/>
    <path id="Path_964" data-name="Path 964" d="M23.561,88.7l1.79,1.717v-4.8a.326.326,0,0,0-.325-.325H20.6a.326.326,0,0,0-.325.325v4.544l1.853-1.518a1.063,1.063,0,0,1,1.434.052" transform="translate(-18.15 -76.369)" fill="#0094d3"/>
    <path id="Path_965" data-name="Path 965" d="M20.273,141.142v4.178a.326.326,0,0,0,.325.325h4.429a.326.326,0,0,0,.325-.325v-3.706l-2.6-2.513Z" transform="translate(-18.15 -124.536)" fill="#0094d3"/>
    <path id="Path_966" data-name="Path 966" d="M24.518,16.176a.535.535,0,0,0-.764.063L15.6,25.8l-3.361-.984a.537.537,0,0,0-.607.22l-3.445,5.12L5.1,27.18a.544.544,0,0,0-.722-.031L.2,30.572a.546.546,0,0,0-.073.764.52.52,0,0,0,.419.2.541.541,0,0,0,.346-.126l3.8-3.12,3.2,3.089a.519.519,0,0,0,.44.147.575.575,0,0,0,.4-.241l3.591-5.329,3.319.974a.525.525,0,0,0,.565-.168l8.376-9.821a.545.545,0,0,0-.063-.764" transform="translate(0 -14.364)" fill="#0094d3"/>
  </g>
</svg>
