<svg xmlns="http://www.w3.org/2000/svg" xmlns:xlink="http://www.w3.org/1999/xlink" width="25.909" height="17.422" viewBox="0 0 25.909 17.422">
  <defs>
    <clipPath id="clip-path">
      <rect id="Rectangle_321" data-name="Rectangle 321" width="25.909" height="17.422" fill="#0094d3"/>
    </clipPath>
  </defs>
  <g id="Group_297" data-name="Group 297" transform="translate(0 0)">
    <g id="Group_295" data-name="Group 295" transform="translate(0 0)" clip-path="url(#clip-path)">
      <path id="Path_944" data-name="Path 944" d="M41.656,79.769H17.7a11.978,11.978,0,1,1,23.955,0M27.893,68.494c-.115.012-.23.019-.343.036-.22.033-.444.055-.66.109a10.843,10.843,0,0,0-7.336,5.822,9.055,9.055,0,0,0-.507,1.462c-.058.186.071.34.274.389a.3.3,0,0,0,.408-.225c.118-.362.22-.731.369-1.079a9.9,9.9,0,0,1,4.929-5.038,10.27,10.27,0,0,1,2.9-.929c.142-.023.3-.057.3-.246a.354.354,0,0,0-.341-.3" transform="translate(-16.936 -64.854)" fill="#0094d3"/>
      <path id="Path_945" data-name="Path 945" d="M12.956,359.448c-3.982,0-7.963-.007-11.945.009A1.02,1.02,0,0,1,0,358.494a.99.99,0,0,1,.944-1.01c.057,0,.115,0,.173,0H24.791a1,1,0,0,1,1.093.775.967.967,0,0,1-.939,1.191H12.956" transform="translate(0 -342.034)" fill="#0094d3"/>
      <path id="Path_946" data-name="Path 946" d="M264.98,2.713A1.356,1.356,0,1,1,265,0a1.356,1.356,0,1,1-.017,2.712" transform="translate(-252.239 0)" fill="#0094d3"/>
    </g>
  </g>
</svg>
