<svg xmlns="http://www.w3.org/2000/svg" width="13.198" height="13.484" viewBox="0 0 13.198 13.484">
  <g id="Group_227" data-name="Group 227" transform="translate(0 0)">
    <g id="Group_228" data-name="Group 228" transform="translate(0 0)">
      <path id="Path_822" data-name="Path 822" d="M6.773,221.062q-3,0-6.005,0a.761.761,0,0,1-.639-.3A.646.646,0,0,1,0,220.347q0-2.554,0-5.108c0-1.035.013-2.071-.006-3.106a.745.745,0,0,1,.758-.758H12.75a.529.529,0,0,1,.294.064.3.3,0,0,1,.153.267q0,1.548,0,3.1c0,.085-.038.1-.109.1-.386,0-.772,0-1.158,0-.724,0-1.449-.016-2.172,0a1.691,1.691,0,0,0-1.6,1.03,1.723,1.723,0,0,0,.9,2.31,1.9,1.9,0,0,0,.767.155c1.074,0,2.148,0,3.223,0,.147,0,.147,0,.147.148q0,1.068,0,2.136a.339.339,0,0,1-.382.379H6.773" transform="translate(0 -207.579)" fill="#333"/>
      <path id="Path_823" data-name="Path 823" d="M94.988,3.537a.165.165,0,0,1-.124.029H90.932a.442.442,0,0,1-.182-.038c-.288-.125-.577-.248-.866-.371a.648.648,0,0,0-.075-.03c-.066-.019-.128-.017-.159.056a.113.113,0,0,0,.067.155c.066.034.137.06.205.09l.235.1c-.01.044-.039.034-.06.034-.5,0-.993,0-1.49,0-.094,0-.077-.042-.052-.1q.687-1.6,1.373-3.208c.016-.038.032-.077.049-.116.065-.146.144-.176.294-.112l.866.37L95.56,2.292l2.8,1.2.033.015c.018.01.047.015.045.038s-.037.024-.059.024H95.754a.464.464,0,0,1-.191-.039c-.28-.122-.56-.241-.841-.36-.115-.049-.181-.037-.211.033s0,.132.121.183l.356.153M90.154,1.873a.43.43,0,0,0,.281.409c.181.079.362.157.544.231a.441.441,0,0,0,.593-.228c.088-.19.17-.382.247-.577a.44.44,0,0,0-.226-.573Q91.3,1,91,.881a.437.437,0,0,0-.553.207c-.1.207-.184.421-.274.633a.445.445,0,0,0-.019.152m3.227.205a1.344,1.344,0,0,0-.083-.415c-.035-.09-.092-.123-.162-.1s-.084.083-.057.175c.009.031.021.062.029.094a1.049,1.049,0,0,1-.565,1.22l-.04.019c-.077.04-.106.1-.072.167s.1.073.169.047a1.309,1.309,0,0,0,.782-1.21m-.411.084a.86.86,0,0,0-.062-.335.113.113,0,0,0-.217.061.347.347,0,0,0,.014.061.583.583,0,0,1-.313.712c-.085.043-.112.1-.084.161s.095.091.181.05a.811.811,0,0,0,.481-.71m-.4-.064a1.254,1.254,0,0,0-.028-.136c-.026-.084-.084-.119-.155-.095s-.082.085-.07.153a.24.24,0,0,1-.132.307.119.119,0,0,0-.058.166c.027.061.1.077.17.041a.487.487,0,0,0,.273-.435" transform="translate(-86.947 0.001)" fill="#333"/>
      <path id="Path_824" data-name="Path 824" d="M462.328,423.463c-.532,0-1.065,0-1.6,0a1.534,1.534,0,0,1-1.54-1.308,1.479,1.479,0,0,1,.909-1.6,1.706,1.706,0,0,1,.672-.136h3.212c.144,0,.145,0,.145.141q0,1.377,0,2.754c0,.144,0,.145-.141.145h-1.66m-1.632-2.122a.6.6,0,0,0-.612.6.611.611,0,0,0,.612.609.621.621,0,0,0,.617-.609.609.609,0,0,0-.617-.6" transform="translate(-450.932 -412.873)" fill="#333"/>
      <path id="Path_825" data-name="Path 825" d="M192.646,60.958a.179.179,0,0,1-.008.052c-.085.2-.168.4-.26.6a.206.206,0,0,1-.271.093c-.191-.077-.381-.158-.568-.244a.206.206,0,0,1-.105-.28q.112-.274.233-.544a.211.211,0,0,1,.3-.124c.183.073.364.152.544.232a.215.215,0,0,1,.134.215" transform="translate(-187.978 -59.402)" fill="#333"/>
      <path id="Path_826" data-name="Path 826" d="M523.219,484.741a.373.373,0,0,1-.376.376.373.373,0,1,1,.376-.376" transform="translate(-513.076 -475.675)" fill="#333"/>
    </g>
  </g>
</svg>
